<?xml version="1.0" standalone="no"?>
<!DOCTYPE svg PUBLIC "-//W3C//DTD SVG 20010904//EN"
 "http://www.w3.org/TR/2001/REC-SVG-20010904/DTD/svg10.dtd">
<svg version="1.0" xmlns="http://www.w3.org/2000/svg"
 width="825.000000pt" height="816.000000pt" viewBox="0 0 825.000000 816.000000"
 preserveAspectRatio="xMidYMid meet">

<g transform="translate(0.000000,816.000000) scale(0.100000,-0.100000)"
fill="#000000" stroke="none">
<path d="M0 4080 l0 -4080 4125 0 4125 0 0 4080 0 4080 -4125 0 -4125 0 0
-4080z m4699 3831 c777 -122 1391 -405 1956 -902 274 -241 546 -548 729 -824
351 -529 538 -1072 607 -1760 14 -137 7 -658 -11 -820 -108 -994 -624 -1914
-1445 -2574 -509 -409 -1014 -643 -1665 -771 -204 -40 -331 -51 -625 -57 -785
-14 -1380 125 -1987 465 -394 221 -702 473 -1069 875 -665 729 -1002 1747
-929 2807 71 1029 481 1872 1260 2588 555 510 1201 832 1909 952 264 45 337
49 746 45 335 -3 409 -6 524 -24z"/>
<path d="M3820 7285 c-277 -29 -517 -79 -755 -160 -573 -195 -1125 -607 -1532
-1142 -335 -439 -544 -970 -605 -1533 -19 -179 -16 -658 5 -808 55 -389 156
-717 316 -1029 82 -158 229 -388 326 -508 152 -190 396 -436 565 -571 488
-391 1089 -631 1690 -673 595 -43 1066 26 1560 229 318 131 666 361 942 624
558 532 878 1119 994 1826 43 267 43 798 0 1053 -98 572 -302 1037 -642 1462
-111 139 -427 457 -559 562 -365 291 -831 514 -1258 602 -372 76 -727 99
-1047 66z m2440 -1550 l0 -325 -470 0 -470 0 0 -299 0 -298 88 -6 c48 -4 259
-9 470 -13 l382 -7 0 -328 0 -329 -470 0 -470 0 0 -1020 0 -1020 -341 0 -341
0 6 113 c3 61 8 677 12 1367 l6 1255 -32 -30 c-18 -16 -134 -151 -258 -300
-125 -148 -246 -292 -269 -319 l-43 -50 0 -1018 0 -1018 -345 0 -345 0 -1 283
c0 155 -2 300 -4 322 -2 22 -6 349 -9 726 -2 378 -8 693 -12 701 -9 15 -171
214 -359 442 -55 67 -127 155 -160 195 l-60 74 -9 -49 c-9 -48 9 -2204 21
-2536 l6 -158 -342 0 -341 0 0 1723 c0 948 3 1839 7 1980 l6 257 348 0 347 0
99 -132 c55 -73 173 -232 263 -353 141 -190 389 -521 498 -665 19 -25 38 -46
42 -48 4 -2 54 56 111 129 57 72 140 177 184 233 72 90 132 168 340 437 33 43
116 150 185 238 l125 160 445 3 c245 2 606 4 803 6 l357 2 0 -325z"/>
</g>
</svg>
