<?xml version="1.0" standalone="no"?>
<!DOCTYPE svg PUBLIC "-//W3C//DTD SVG 20010904//EN"
 "http://www.w3.org/TR/2001/REC-SVG-20010904/DTD/svg10.dtd">
<svg version="1.0" xmlns="http://www.w3.org/2000/svg"
 width="800.000000pt" height="227.000000pt" viewBox="0 0 800.000000 227.000000"
 preserveAspectRatio="xMidYMid meet">
<metadata>
Created by potrace 1.15, written by Peter Selinger 2001-2017
</metadata>
<g transform="translate(0.000000,227.000000) scale(0.100000,-0.100000)"
fill="#000000" stroke="none">
<path d="M3400 2261 l45 -6 -60 -8 c-141 -17 -145 -18 -145 -65 0 -43 5 -40
-102 -62 l-37 -7 2 35 c3 58 -45 70 -77 19 -8 -12 -5 -22 11 -39 11 -13 23
-32 25 -43 4 -21 6 -21 88 -11 45 6 45 6 15 -8 -16 -7 -49 -16 -72 -19 -37 -4
-42 -3 -47 19 -7 27 -15 28 -71 13 -22 -6 -49 -13 -60 -14 -11 -2 -42 -7 -70
-13 -27 -5 -66 -9 -85 -8 -33 1 -35 -1 -38 -32 -3 -29 -5 -32 -20 -20 -10 8
-13 9 -9 1 4 -7 0 -16 -10 -22 -10 -6 -13 -11 -7 -11 6 0 14 3 18 7 10 10 46
14 46 5 0 -13 -160 -54 -185 -48 -28 7 -69 -29 -60 -53 4 -9 8 -23 9 -30 4
-23 33 -38 47 -24 9 9 7 11 -8 7 -12 -3 -24 -1 -27 5 -5 7 2 11 18 11 14 0 31
8 38 19 9 12 58 31 148 56 74 20 155 43 180 50 25 7 57 16 73 19 15 4 27 13
27 22 0 10 -6 14 -17 10 -10 -3 -52 -12 -95 -20 -42 -9 -88 -20 -103 -26 -32
-12 -35 -12 -35 -2 0 4 12 13 28 20 39 20 231 71 236 63 2 -3 7 -28 11 -54 4
-27 13 -51 20 -53 6 -3 45 2 86 11 89 18 122 19 117 3 -2 -6 -76 -26 -164 -44
-87 -17 -213 -46 -278 -63 -139 -36 -136 -36 -136 -16 0 8 3 15 6 15 3 0 51
12 107 27 56 15 122 27 147 27 41 1 45 3 48 28 4 37 -26 45 -75 19 -21 -11
-72 -27 -113 -36 -41 -9 -94 -23 -117 -32 -45 -16 -50 -29 -36 -81 5 -21 11
-23 42 -19 20 3 72 14 116 26 44 12 88 24 98 26 10 2 28 7 39 11 11 3 30 7 41
8 12 2 36 6 52 10 70 15 83 18 140 26 119 17 125 19 121 51 -2 17 2 30 11 33
20 8 21 8 20 -6 -1 -48 0 -49 70 -43 37 4 71 12 75 18 5 7 5 39 1 72 -4 33 -7
92 -7 130 0 39 -2 60 -4 48 -2 -12 -13 -25 -24 -29 -20 -6 -20 -11 -15 -95 3
-49 3 -89 -1 -90 -4 0 -17 -2 -29 -5 -13 -2 -23 1 -23 6 0 9 14 14 32 11 4 0
5 6 2 13 -3 8 -9 45 -12 83 l-7 68 -42 3 c-70 5 -54 28 28 40 39 6 72 12 74
14 2 2 5 14 7 28 3 23 0 25 -42 26 l-45 2 45 -7z"/>
<path d="M3530 2261 l-55 -6 0 -45 c1 -53 13 -219 21 -270 3 -19 6 -55 8 -80
7 -92 17 -206 21 -237 4 -34 -10 -46 -19 -15 -2 9 -7 47 -11 85 l-7 67 -39 0
c-70 0 -364 -50 -539 -92 -231 -55 -594 -177 -666 -224 -13 -9 -27 -14 -30
-11 -3 3 8 13 25 22 17 8 31 18 31 21 0 7 -41 -15 -62 -34 -22 -18 -22 -43 -3
-102 9 -25 13 -31 10 -15 -13 75 -17 110 -12 104 4 -3 9 -21 11 -40 3 -19 9
-46 15 -59 5 -14 13 -43 17 -65 4 -22 8 -44 10 -50 11 -48 50 -217 66 -290 24
-112 26 -123 32 -143 3 -9 7 -28 10 -42 8 -43 46 -183 51 -188 2 -3 20 9 40
27 48 42 130 82 152 75 11 -4 14 -3 7 3 -7 4 -14 24 -18 43 -3 19 -10 55 -16
80 -35 157 -38 175 -26 183 6 4 19 5 29 3 9 -2 15 0 12 4 -3 5 4 11 15 15 11
4 20 15 20 26 0 32 -31 158 -40 164 -4 3 -24 -2 -44 -10 -19 -8 -37 -15 -39
-15 -3 0 -10 21 -16 48 -7 26 -16 61 -20 78 -5 18 -6 36 -2 42 13 20 91 51
261 105 234 74 419 120 534 132 27 3 52 7 55 10 4 2 41 7 81 11 124 11 133 12
204 24 37 7 80 10 95 8 l26 -4 -16 181 c-9 99 -15 182 -13 184 1 2 24 -18 51
-45 26 -26 37 -39 23 -28 -22 16 -21 14 4 -14 30 -32 50 -45 26 -17 -7 8 -8
15 -3 15 12 0 75 -65 68 -71 -3 -3 7 -16 23 -30 l27 -24 -24 28 c-47 53 -8 26
97 -68 59 -52 111 -95 115 -95 5 0 7 41 6 92 -2 91 -2 92 28 117 17 15 58 50
91 79 l60 52 -5 -151 c-2 -83 -8 -161 -12 -173 -8 -21 -6 -21 104 -24 l113 -3
7 49 c3 27 5 82 3 123 l-3 74 45 0 c25 0 61 -3 81 -7 20 -4 63 -10 95 -13 31
-3 60 -7 63 -9 6 -4 11 45 14 129 2 37 0 39 -31 46 -19 4 -64 10 -100 14 -133
13 -147 18 -144 45 2 14 5 26 5 27 1 0 33 -1 72 -4 40 -4 62 -9 51 -13 -10 -3
-40 -3 -66 0 -42 5 -47 4 -42 -12 2 -10 9 -18 16 -18 6 0 58 -7 116 -16 58 -8
123 -17 145 -20 22 -3 55 -9 73 -14 19 -5 40 -6 48 -3 9 3 14 -1 14 -12 0 -9
-4 -14 -8 -11 -5 3 -19 7 -33 10 -13 2 -36 7 -50 11 -21 5 -27 2 -37 -19 -9
-21 -9 -25 6 -24 9 1 44 -4 76 -11 33 -6 63 -8 67 -4 4 5 14 31 21 59 l13 51
90 -22 c106 -26 165 -46 165 -57 0 -10 -7 -10 -28 1 -10 5 -53 17 -97 26 -44
10 -90 20 -102 22 -18 4 -23 1 -23 -16 0 -17 6 -21 30 -21 17 0 30 -4 30 -10
0 -5 -9 -10 -21 -10 -16 0 -20 -5 -17 -27 3 -26 7 -28 63 -35 56 -6 220 -44
237 -54 5 -3 6 -9 3 -13 -2 -5 -53 4 -112 19 -110 27 -278 67 -323 75 -99 19
-92 19 -88 -6 2 -15 11 -25 23 -27 11 -1 43 -7 70 -12 28 -6 85 -17 128 -25
43 -9 128 -29 188 -45 60 -17 116 -30 124 -30 14 0 39 66 30 80 -8 12 -56 29
-159 54 -54 14 -106 32 -115 42 -15 16 -15 16 3 10 10 -3 64 -18 120 -32 141
-36 195 -53 203 -68 13 -23 49 -28 67 -11 9 9 16 23 16 30 0 20 -44 47 -63 39
-17 -6 -177 34 -177 45 0 4 5 12 11 18 19 19 6 58 -19 61 -13 2 -28 -1 -35 -6
-8 -6 -52 1 -126 20 -118 29 -141 28 -141 -12 0 -12 -7 -16 -22 -14 -13 2 -45
6 -72 9 -48 7 -48 7 -41 38 3 18 9 57 11 88 l5 56 -68 8 c-37 4 -82 9 -99 10
-17 2 -51 6 -74 10 -47 8 -61 9 -196 20 -76 6 -92 4 -103 -9 -18 -22 -37 -20
-20 2 11 14 10 14 -8 -2 -13 -10 -21 -22 -18 -25 2 -4 -55 -62 -126 -130
l-130 -124 -30 29 c-31 30 -40 55 -11 33 9 -7 -30 35 -88 94 -57 59 -107 107
-109 107 -2 0 4 -9 14 -20 28 -31 2 -23 -29 9 -20 20 -24 30 -14 33 19 7 -138
6 -202 -1z"/>
<path d="M6770 2146 c-30 -7 -81 -24 -114 -39 -65 -30 -80 -34 -52 -12 11 8
15 15 9 15 -6 0 -16 -7 -23 -15 -7 -8 -9 -15 -5 -15 4 0 2 -7 -5 -15 -7 -8
-17 -15 -22 -15 -6 0 -5 7 2 15 11 13 10 14 -4 9 -10 -4 -15 -12 -12 -19 2 -7
-9 -26 -26 -41 -16 -16 -41 -48 -55 -72 -14 -23 -28 -40 -31 -38 -4 2 -8 -8
-8 -22 -1 -15 -7 -55 -14 -90 -17 -84 -6 -154 36 -237 37 -76 39 -79 24 -70
-18 11 -52 87 -81 181 -30 96 -47 119 -98 134 -59 17 -105 -22 -69 -58 7 -7 8
-12 2 -12 -5 0 -15 9 -22 20 -8 14 -23 20 -46 20 -37 0 -51 -12 -61 -53 -6
-23 -12 -27 -30 -23 -33 8 -56 -15 -62 -62 -4 -30 -10 -42 -22 -42 -25 0 -41
-20 -41 -52 0 -16 -10 -36 -25 -50 -14 -14 -29 -42 -34 -68 -5 -25 -29 -92
-54 -150 -24 -58 -53 -132 -64 -165 -60 -174 -56 -191 42 -181 33 3 71 8 85
11 28 5 40 -8 40 -48 0 -15 11 -69 25 -121 25 -93 32 -140 15 -101 -7 16 -9
17 -9 3 -2 -36 22 -27 79 31 77 79 169 196 227 289 25 40 48 71 50 68 7 -7
-107 -186 -176 -276 -78 -100 -189 -220 -204 -220 -6 0 11 24 38 53 l50 52
-52 -49 c-29 -28 -50 -52 -48 -54 6 -7 -15 -32 -27 -32 -5 0 -6 5 -3 10 3 6 1
10 -5 10 -6 0 -10 -8 -8 -17 6 -37 -252 -185 -372 -215 -153 -37 -222 -40
-337 -14 -40 9 -117 46 -140 68 -24 22 -32 45 -11 32 7 -4 8 -3 4 5 -4 6 -12
9 -17 6 -17 -11 -31 46 -18 76 27 67 116 58 295 -28 83 -40 126 -55 158 -55
86 -2 135 39 120 99 -6 21 -4 24 7 18 12 -8 12 -6 0 8 -15 19 -26 23 -15 5 4
-7 -7 -2 -24 11 -18 12 -29 27 -26 33 4 6 2 8 -3 5 -6 -4 -31 5 -56 19 -52 28
-224 89 -283 99 -22 4 -68 15 -104 25 -217 59 -469 96 -790 116 -72 5 -479 4
-545 0 -275 -19 -380 -31 -560 -66 -60 -11 -123 -23 -140 -26 -16 -2 -38 -7
-47 -10 -9 -3 -26 -7 -39 -9 -108 -21 -315 -87 -387 -124 -24 -12 -46 -19 -51
-17 -5 3 -17 -4 -27 -17 l-19 -22 25 20 c14 12 9 2 -13 -23 -43 -49 -47 -82
-15 -114 13 -13 22 -26 21 -30 -2 -4 7 -12 20 -18 21 -10 21 -10 3 4 -17 14
-12 15 52 13 39 -1 69 0 67 3 -2 4 45 30 105 58 165 79 250 87 278 28 18 -36
9 -67 -31 -112 -48 -55 -98 -75 -240 -94 -53 -7 -84 -6 -140 7 -40 8 -85 18
-102 20 -45 7 -200 77 -200 90 0 6 -4 15 -9 20 -5 5 -6 3 -2 -4 9 -16 1 -16
-25 -2 -11 5 -17 14 -14 19 3 5 0 12 -6 16 -8 4 -9 3 -5 -4 12 -19 -3 -14 -49
18 -41 28 -77 64 -44 45 12 -8 12 -6 0 8 -15 19 -26 23 -15 6 4 -7 1 -10 -7
-7 -8 3 -13 10 -12 16 1 5 -5 16 -15 24 -15 12 -16 11 -3 -4 7 -10 9 -18 4
-18 -16 0 -44 36 -36 45 5 4 3 5 -3 2 -14 -8 -37 17 -26 28 4 5 2 5 -5 1 -6
-3 -14 -2 -18 4 -3 5 1 10 10 10 24 0 95 38 145 79 24 20 50 35 56 33 6 -1 15
5 18 14 5 14 4 15 -9 4 -9 -8 -15 -8 -15 -2 0 11 19 27 32 27 3 0 10 4 15 9 5
5 3 6 -4 2 -16 -9 -16 -1 -2 25 5 11 15 16 21 13 7 -4 8 -3 4 5 -4 6 -2 36 5
67 10 45 10 65 -1 107 -15 62 -50 133 -84 174 -14 17 -23 32 -20 35 2 3 -4 11
-13 19 -16 13 -17 12 -4 -4 19 -24 8 -21 -35 8 -41 28 -64 32 -64 11 0 -20
-27 -39 -42 -30 -9 6 -5 10 12 14 19 5 21 7 9 12 -23 9 -43 -7 -35 -27 5 -13
14 -16 35 -12 l29 6 8 -87 c7 -87 -8 -301 -23 -325 -4 -7 -8 -18 -9 -25 -5
-30 -14 -42 -34 -42 -11 0 -20 -4 -20 -10 0 -5 7 -10 15 -10 19 0 19 -14 0
-34 -8 -8 -15 -22 -15 -31 0 -17 -21 -17 -22 0 0 6 -9 16 -19 23 -25 17 -24
28 2 35 29 8 19 31 -17 37 -21 4 -29 11 -29 27 0 12 -4 25 -8 29 -14 15 -7 33
11 27 15 -6 16 -5 2 12 -14 17 -13 17 10 10 27 -9 32 -9 68 -7 32 3 64 58 58
101 -11 72 -77 94 -135 45 -17 -14 -31 -23 -31 -19 0 4 -7 2 -15 -5 -8 -7 -15
-8 -15 -3 0 5 11 15 25 21 14 6 25 16 25 22 0 6 -13 1 -30 -12 -16 -12 -30
-30 -30 -39 0 -10 -3 -24 -6 -33 -3 -9 -1 -16 5 -16 6 0 11 9 11 19 0 10 7 22
16 25 12 5 15 2 9 -11 -3 -10 -9 -31 -12 -46 -4 -19 -9 -24 -13 -16 -10 15
-40 4 -40 -15 0 -8 10 -16 22 -18 19 -3 24 -12 31 -58 7 -53 44 -137 74 -172
9 -10 13 -25 8 -35 -6 -17 -7 -17 -20 1 -20 27 -38 11 -20 -18 14 -21 14 -25
-4 -47 -19 -24 -19 -24 -40 -5 -29 26 -39 11 -18 -25 16 -28 16 -32 0 -55
l-16 -25 -13 30 c-14 33 -32 39 -52 19 -18 -18 -15 -36 13 -64 l26 -25 -32
-40 c-17 -22 -36 -38 -43 -36 -12 4 -85 106 -85 121 -1 5 6 3 14 -4 34 -28 59
15 35 61 -13 23 -46 25 -58 2 -9 -15 -10 -14 -20 3 -43 83 -59 303 -29 412 21
80 68 174 114 230 70 86 205 152 310 152 40 0 53 4 53 15 0 22 -43 132 -84
212 -39 78 -42 88 -24 77 7 -4 8 -3 4 5 -4 6 -11 9 -16 6 -4 -3 -23 19 -40 47
-18 29 -46 69 -61 89 -35 44 -38 59 -7 33 13 -10 1 6 -27 36 -27 30 -56 59
-65 64 -8 5 5 -12 30 -38 24 -25 40 -46 34 -46 -5 0 -28 19 -50 43 -80 83
-179 126 -243 103 -18 -6 -22 -5 -16 5 5 8 -4 3 -18 -10 -27 -25 -35 -37 -17
-26 14 8 13 4 -9 -46 -11 -24 -22 -57 -25 -72 -14 -81 -86 -247 -107 -247 -6
0 -1 13 11 29 27 40 43 130 37 216 -11 145 -66 251 -155 296 -46 24 -63 27
-169 28 -183 2 -345 -36 -490 -115 -67 -37 -78 -40 -67 -22 4 7 3 8 -5 4 -6
-4 -9 -11 -6 -16 3 -5 -8 -18 -24 -29 -36 -26 -48 -27 -30 -3 13 15 12 16 -3
3 -10 -7 -16 -17 -13 -21 5 -8 -89 -100 -102 -100 -4 0 11 19 32 42 38 41 38
41 5 13 -19 -17 -36 -31 -38 -32 -2 0 -5 -8 -6 -17 -3 -20 -37 -57 -47 -51 -4
3 -11 0 -15 -6 -4 -8 -3 -9 4 -5 21 13 12 -8 -23 -56 -23 -32 -40 -46 -50 -42
-8 4 -15 1 -15 -6 0 -6 4 -8 10 -5 16 10 12 -5 -19 -59 -82 -144 -134 -345
-130 -506 2 -90 10 -133 22 -120 26 27 57 88 57 110 0 16 7 30 15 34 19 7 48
73 39 87 -3 5 2 26 11 45 12 25 15 47 10 75 -7 38 -6 40 29 54 72 30 91 6 31
-42 -19 -15 -35 -37 -35 -48 0 -11 -7 -31 -16 -43 -8 -12 -17 -45 -19 -72 -1
-28 -8 -57 -15 -65 -10 -12 -10 -21 0 -44 6 -17 9 -43 5 -60 -4 -20 -2 -32 8
-38 7 -4 21 -26 30 -48 9 -22 16 -34 16 -27 1 7 -4 23 -10 34 -12 23 -19 127
-8 133 4 3 9 -26 11 -63 3 -49 12 -85 36 -136 36 -77 37 -80 20 -70 -8 4 -10
3 -5 -2 5 -5 14 -9 20 -9 5 0 12 -6 15 -14 3 -8 0 -11 -7 -7 -7 5 -9 1 -4 -9
4 -11 8 -13 13 -5 5 8 11 6 20 -5 7 -8 10 -18 6 -22 -3 -4 10 -23 30 -44 22
-23 32 -39 25 -43 -6 -4 -23 -14 -39 -22 -15 -7 -21 -14 -14 -14 8 0 27 10 44
21 l30 22 -39 40 -38 41 47 -40 48 -39 -26 -22 c-83 -74 -154 -3 -170 171 -4
40 -19 87 -42 136 -20 41 -36 77 -35 80 4 17 -52 1 -68 -18 -28 -36 -22 -196
11 -271 21 -47 30 -57 74 -76 54 -24 113 -80 140 -130 32 -62 31 -62 73 -17
22 23 43 42 48 42 5 0 -7 -16 -26 -36 l-34 -37 33 23 c17 13 33 27 33 32 3 19
5 24 12 35 5 7 13 13 19 13 6 0 5 -7 -3 -17 -13 -16 -12 -17 3 -4 10 7 15 17
12 22 -12 21 26 18 89 -6 94 -35 115 -33 162 15 42 43 41 44 -30 54 -83 10
-181 48 -171 65 4 5 1 13 -5 17 -8 5 -9 3 -4 -6 5 -8 3 -11 -6 -8 -8 3 -14 9
-14 15 0 6 -22 34 -49 63 -27 29 -46 45 -43 36 4 -9 2 -16 -3 -16 -12 0 -79
138 -88 181 -8 37 -9 167 -2 214 6 37 71 170 85 171 29 4 54 17 49 26 -3 5
-14 2 -25 -8 -10 -9 -19 -12 -19 -6 0 6 4 13 9 16 5 3 -7 22 -25 41 l-34 36
-25 -28 -24 -28 -1 58 c0 56 22 123 39 113 4 -3 20 6 37 20 16 14 22 22 14 18
-8 -4 -23 -14 -32 -22 -10 -8 -18 -11 -18 -6 0 5 17 20 38 33 50 33 125 39
177 15 l40 -18 -40 -4 c-22 -2 -45 -8 -52 -14 -7 -5 -17 -7 -22 -3 -6 3 -19
-3 -30 -14 -11 -11 -22 -17 -25 -14 -9 9 -37 -19 -32 -33 2 -6 -4 -14 -15 -17
-31 -8 -23 -46 21 -90 38 -37 42 -39 57 -24 15 15 15 18 -3 38 -19 22 -19 22
4 10 12 -6 22 -16 22 -21 0 -19 32 -10 37 10 3 11 9 17 14 14 5 -3 14 6 20 20
14 31 56 47 156 62 36 6 47 2 87 -26 25 -18 43 -36 41 -41 -3 -4 0 -11 6 -15
8 -4 9 -3 5 4 -17 28 18 9 54 -29 32 -34 44 -40 65 -35 21 5 25 3 25 -14 0
-20 -5 -21 -81 -19 -67 2 -83 -1 -91 -15 -5 -9 -13 -14 -17 -11 -5 2 -15 -3
-22 -13 -13 -15 -12 -16 4 -3 9 7 17 9 17 4 0 -13 -35 -45 -42 -38 -3 3 -11
-3 -19 -12 -13 -16 -12 -17 4 -4 21 16 23 -1 2 -19 -8 -7 -15 -9 -15 -5 0 4
-7 1 -17 -6 -13 -11 -17 -11 -20 -1 -3 6 -10 12 -16 12 -7 -1 -2 -9 10 -19 24
-20 29 -31 15 -31 -14 0 -74 89 -67 99 3 5 0 13 -6 17 -8 5 -9 3 -4 -7 5 -8
-1 -5 -13 5 -26 23 -30 45 -4 25 15 -12 16 -12 5 2 -9 11 -32 16 -78 18 l-65
2 0 -285 0 -286 52 0 51 0 -6 202 c-6 182 -5 199 9 180 8 -12 13 -26 10 -31
-3 -5 1 -14 9 -21 8 -7 15 -9 15 -5 0 4 7 2 15 -5 12 -10 15 -36 15 -114 0
-55 3 -125 6 -153 l7 -53 48 0 49 0 0 145 0 146 40 50 40 51 -2 -199 -2 -198
-6 185 c-3 102 -7 178 -8 170 -4 -23 -2 -342 2 -349 2 -3 29 -4 60 -3 l56 4 0
143 0 144 67 3 68 3 6 55 6 55 -1 -60 -1 -60 -60 -6 -60 -6 56 -1 c70 -2 81 9
77 79 l-3 52 -77 -2 -78 -2 0 40 0 41 70 0 70 0 0 45 0 45 -37 0 c-50 0 -33
13 23 18 55 4 75 -10 111 -82 39 -78 53 -135 53 -226 l0 -86 40 -39 c21 -21
37 -42 35 -45 -3 -4 3 -14 12 -21 15 -12 16 -12 8 1 -14 22 -17 51 -10 88 6
32 6 32 64 32 86 0 95 -10 88 -106 -3 -43 -7 -88 -10 -99 -3 -11 -8 -33 -12
-48 l-8 -28 -28 27 c-32 31 -40 57 -9 29 11 -10 20 -16 20 -13 0 2 -14 17 -32
34 -18 16 -26 21 -19 12 7 -10 11 -18 8 -18 -3 0 -37 38 -76 85 -88 104 -97
106 -179 30 -58 -54 -88 -72 -61 -38 8 10 -9 -2 -37 -27 -52 -47 -114 -113
-117 -127 -1 -4 -6 -7 -10 -5 -5 1 -6 -1 -3 -6 6 -10 -67 -81 -190 -185 -91
-77 -124 -97 -88 -54 l19 22 -23 -19 c-12 -11 -20 -21 -17 -24 6 -7 -15 -32
-27 -32 -5 0 -6 5 -2 12 4 7 3 8 -5 4 -6 -4 -9 -11 -6 -16 3 -5 -8 -16 -25
-25 -29 -15 -35 -15 -78 -1 -72 24 -107 50 -153 112 -60 81 -118 129 -135 111
-7 -6 22 -63 47 -96 21 -27 25 -46 7 -35 -7 4 -8 3 -4 -5 4 -6 11 -9 16 -6 5
3 18 -8 29 -24 26 -36 27 -48 4 -30 -16 13 -17 12 -4 -4 8 -9 16 -15 19 -12 6
5 187 -166 187 -177 0 -4 5 -12 11 -18 12 -12 44 -3 44 12 0 6 -7 5 -15 -2
-12 -10 -19 -10 -27 -2 -9 9 -7 12 9 12 12 0 31 15 48 41 51 72 239 236 298
258 13 5 41 12 63 15 100 15 277 135 330 224 10 18 22 32 26 32 14 0 9 -13
-15 -39 -12 -14 -14 -19 -4 -12 11 9 17 10 17 2 0 -6 -31 -44 -70 -84 -84 -89
-159 -128 -298 -154 -52 -10 -91 -22 -89 -28 6 -18 38 -17 131 5 118 28 198
73 274 154 64 69 82 103 62 116 -7 4 -8 10 -3 13 5 3 47 -45 93 -106 107 -141
195 -235 223 -239 16 -2 22 -10 21 -25 0 -16 5 -23 18 -23 10 0 21 -6 24 -14
3 -8 19 -19 35 -25 16 -5 29 -15 29 -22 0 -6 11 -20 25 -31 14 -11 23 -23 20
-27 -2 -5 5 -17 18 -27 18 -16 19 -16 8 -2 -7 10 -10 18 -7 18 14 0 65 -43 60
-51 -2 -4 1 -11 7 -15 8 -4 9 -3 5 4 -11 19 -1 15 87 -32 161 -86 274 -112
492 -110 72 0 153 3 181 7 58 7 158 38 215 68 44 22 53 24 43 7 -4 -7 -3 -8 5
-4 6 4 9 11 6 16 -3 4 11 17 31 29 39 23 48 26 39 11 -3 -5 -1 -10 5 -10 6 0
10 7 8 16 -2 9 8 23 22 32 l25 16 -19 -22 c-17 -19 -17 -22 -3 -16 15 6 21 17
15 28 -5 9 65 75 73 70 4 -2 11 1 15 7 4 8 3 9 -4 5 -17 -11 -15 2 7 33 11 14
27 51 37 80 18 57 19 47 -13 284 -3 21 -1 37 5 37 5 0 47 6 93 14 121 20 227
34 399 52 19 1 76 8 125 13 117 14 515 14 630 0 107 -12 131 -15 255 -28 52
-6 124 -15 160 -20 163 -25 204 -32 208 -36 2 -2 0 -26 -6 -52 -46 -213 -39
-268 51 -385 19 -25 34 -48 31 -50 -2 -3 8 -15 24 -29 l27 -24 -24 28 c-14 15
-20 27 -14 27 6 0 17 -8 24 -17 8 -9 41 -34 74 -55 33 -22 60 -42 60 -46 0
-13 16 -32 28 -32 6 0 2 7 -9 16 -22 18 -28 20 100 -28 44 -16 102 -32 130
-35 113 -14 406 -6 435 11 4 3 18 7 32 10 40 7 121 37 171 62 53 27 62 29 52
12 -4 -7 -3 -8 5 -4 6 4 9 11 6 16 -6 9 63 55 71 47 3 -2 -10 -14 -28 -26 -18
-11 -29 -21 -25 -21 16 0 67 41 62 50 -3 4 16 24 42 43 73 54 263 254 324 343
31 43 84 126 119 184 34 58 71 117 82 133 13 18 18 36 14 55 -6 28 21 72 43
72 6 0 12 5 12 10 1 6 2 13 3 18 1 4 19 33 41 64 38 55 55 70 55 48 0 -5 7 -7
15 -4 8 4 15 12 15 20 0 8 -7 14 -15 14 -8 0 -15 2 -15 5 0 9 52 88 74 113 12
13 21 29 21 35 0 30 69 179 87 188 11 6 52 13 92 16 l73 6 9 -44 c11 -54 30
-53 26 2 -3 39 -3 40 25 33 37 -9 82 -30 111 -53 l24 -18 -35 -71 -35 -72 20
-25 c28 -36 61 -24 126 44 l53 56 25 -30 c74 -89 120 -240 111 -365 -5 -64 -9
-78 -31 -97 -18 -15 -26 -32 -26 -55 0 -36 -14 -61 -68 -122 -63 -71 -101 -99
-116 -87 -10 8 -16 8 -25 -2 -6 -8 -8 -17 -4 -20 17 -17 -151 -63 -192 -53
-23 6 -91 88 -180 220 -37 53 -54 81 -122 189 -15 24 -31 37 -45 37 -30 0 -95
-73 -167 -188 -197 -318 -260 -399 -388 -501 -45 -36 -77 -67 -73 -69 5 -2 35
9 67 25 42 20 90 60 173 143 63 63 130 135 148 160 18 25 51 71 74 103 l42 58
30 -30 30 -30 -13 -62 c-18 -90 -29 -115 -44 -100 -9 9 -8 18 4 40 25 42 11
58 -39 43 -46 -14 -72 -48 -79 -103 -6 -44 6 -50 46 -23 19 14 27 14 47 4 13
-8 24 -18 24 -23 0 -6 -9 -2 -20 8 -17 15 -23 16 -33 5 -8 -9 -8 -11 0 -6 6 3
26 -6 45 -21 18 -15 27 -20 19 -10 -7 9 -9 17 -4 17 11 0 51 -41 54 -55 4 -24
12 -33 30 -38 12 -3 19 0 19 9 0 7 -6 11 -13 8 -8 -3 -20 2 -27 11 -12 14 -10
16 13 10 21 -6 27 -4 27 9 0 9 9 25 20 36 l21 21 44 -31 c24 -16 51 -30 60
-30 10 0 13 -5 9 -12 -5 -7 -3 -8 6 -3 10 6 3 17 -26 41 l-39 33 42 42 c36 36
44 41 57 30 18 -15 22 -61 6 -61 -5 0 -10 9 -10 20 0 23 -10 26 -28 8 -16 -16
-15 -63 1 -77 14 -11 27 -5 27 13 0 6 -5 4 -10 -4 -6 -9 -10 -10 -10 -3 0 22
18 24 55 6 31 -15 37 -15 45 -3 6 10 10 11 10 3 0 -7 -8 -17 -17 -22 -10 -6
-13 -11 -7 -11 6 0 19 9 29 20 10 11 13 20 7 20 -7 0 -13 -1 -14 -2 -2 -1 -13
4 -26 11 -21 11 -21 13 -7 41 20 38 38 31 97 -35 66 -73 148 -177 148 -187 0
-10 -3 -10 -36 3 -22 8 -36 6 -66 -7 -35 -16 -38 -16 -72 4 -29 17 -37 18 -46
7 -22 -27 -67 -28 -110 -4 -34 19 -44 21 -60 11 -31 -19 -77 -15 -99 9 l-20
21 -29 -21 c-36 -25 -69 -27 -101 -5 -22 16 -25 15 -61 -5 -47 -26 -49 -26
-94 4 l-37 25 -26 -20 c-28 -22 -68 -26 -79 -9 -3 6 -17 8 -31 4 -18 -4 -23
-2 -17 6 4 8 3 9 -5 5 -6 -4 -8 -12 -5 -18 5 -8 1 -9 -10 -5 -11 5 -15 3 -10
-5 5 -7 2 -9 -9 -5 -8 3 -18 0 -21 -8 -5 -15 9 -13 51 8 18 8 30 6 57 -8 33
-18 35 -18 74 2 39 19 41 19 64 1 29 -22 76 -23 107 -2 21 15 25 15 57 -2 30
-16 38 -17 66 -5 41 17 65 17 105 0 28 -11 37 -11 65 2 30 15 35 15 63 -2 36
-23 67 -24 104 -5 25 13 31 13 50 -1 16 -10 33 -13 59 -8 66 11 152 3 152 -16
0 -16 -16 -17 -54 -4 -26 9 -45 11 -57 4 -26 -14 -82 -11 -104 5 -17 12 -24
12 -49 -1 -32 -17 -87 -11 -106 12 -10 13 -16 13 -41 0 -36 -19 -74 -19 -104
1 -21 14 -26 14 -54 0 -38 -20 -71 -20 -99 0 -21 14 -26 14 -58 -1 -38 -18
-85 -13 -104 10 -9 11 -17 12 -32 4 -44 -24 -76 -27 -105 -12 -21 11 -35 12
-58 5 -31 -11 -104 -10 -122 1 -6 4 -19 -3 -29 -16 -19 -22 -19 -22 2 -5 20
17 22 17 62 -13 26 -19 39 -35 35 -44 -3 -8 0 -15 7 -15 6 0 8 5 5 10 -10 16
1 12 66 -27 71 -41 176 -82 231 -88 20 -3 47 -9 60 -13 32 -12 104 -17 223
-16 101 0 130 3 220 23 95 20 120 28 169 49 57 26 60 26 50 9 -4 -7 -3 -9 2
-4 5 5 9 13 9 17 0 9 89 70 101 70 3 0 2 -6 -2 -13 -4 -7 -3 -9 2 -4 5 5 9 14
9 20 0 5 6 12 14 15 9 3 11 0 6 -8 -5 -9 -4 -11 4 -6 6 4 9 11 6 16 -3 4 11
20 29 34 40 30 54 34 35 9 -13 -16 -12 -17 4 -4 9 8 15 16 12 19 -7 7 25 42
38 42 6 0 2 -10 -9 -22 -10 -13 1 -5 24 17 23 21 42 41 42 44 0 2 -11 -6 -25
-19 -38 -36 -30 -14 16 40 25 30 46 47 55 43 8 -3 14 0 14 7 0 6 -4 8 -10 5
-16 -10 -12 4 13 40 13 19 27 32 31 28 4 -4 4 0 1 8 -3 9 -1 29 6 45 16 41 22
84 12 84 -5 0 -27 -18 -48 -40 -43 -44 -74 -56 -33 -12 24 24 26 34 24 100 -1
60 -5 76 -21 88 -29 21 -37 17 -19 -11 8 -13 14 -39 13 -57 -2 -18 1 -46 5
-61 7 -22 4 -33 -12 -50 -11 -12 -23 -32 -27 -44 -3 -13 -13 -23 -20 -23 -8 0
-26 -11 -40 -26 -14 -14 -30 -22 -37 -18 -7 4 -8 3 -4 -4 11 -18 33 -14 57 11
12 12 20 17 18 10 -2 -7 -25 -34 -51 -61 -35 -36 -62 -54 -102 -66 -64 -20
-101 -18 -101 6 0 9 -4 20 -9 25 -5 4 -6 3 -2 -4 12 -21 -5 -15 -25 10 -23 28
-24 44 -1 26 15 -13 16 -12 3 3 -7 10 -17 15 -21 13 -8 -5 -60 54 -60 67 0 3
15 8 33 11 17 3 41 9 52 13 18 7 19 6 6 -10 -11 -13 -11 -20 -3 -28 7 -7 12
-16 12 -21 0 -14 -21 4 -30 27 -6 14 -9 16 -9 5 -1 -8 11 -26 26 -40 14 -13
23 -18 18 -10 -6 11 -4 13 11 7 10 -5 38 -11 62 -13 23 -3 42 -10 42 -15 0 -5
12 -8 26 -6 21 2 28 9 30 32 2 16 8 34 13 39 16 16 14 23 -13 35 -17 7 -27 7
-34 0 -8 -8 -20 -7 -41 2 -17 7 -37 10 -46 6 -8 -3 -15 -1 -15 4 0 6 5 10 10
10 6 0 29 12 51 26 23 14 43 23 46 20 3 -2 -9 -12 -26 -21 -18 -9 -29 -20 -26
-25 5 -8 60 35 60 48 1 22 17 31 36 21 11 -5 28 -7 39 -4 21 7 35 -21 24 -49
-9 -23 9 -20 24 5 11 18 11 24 -2 38 -9 10 -16 23 -16 30 0 8 -7 10 -20 6 -37
-12 -39 5 -4 43 19 20 42 51 51 67 8 17 17 32 19 34 2 2 34 -22 71 -53 42 -35
76 -56 88 -54 27 4 52 59 60 131 3 33 10 69 14 80 4 12 8 54 9 93 0 67 -2 75
-38 131 -21 32 -49 68 -60 78 -22 20 -22 20 -40 -3 -38 -46 -35 -195 5 -273
19 -35 19 -89 1 -114 -12 -16 -16 -17 -30 -6 -9 7 -14 17 -11 21 3 5 0 12 -6
16 -8 5 -10 3 -4 -7 4 -8 0 -6 -11 3 -16 16 -17 23 -6 63 17 64 15 222 -4 297
-9 35 -27 84 -41 110 -24 45 -25 49 -9 72 9 14 16 32 16 40 0 8 5 18 11 22 8
4 9 0 4 -14 -5 -18 6 -54 32 -104 2 -5 0 -8 -5 -8 -5 0 -15 14 -22 30 -14 35
-35 41 -25 8 9 -29 33 -68 43 -68 4 0 7 -17 8 -37 2 -48 11 -104 20 -112 4 -3
5 6 2 21 -3 15 0 29 6 31 8 3 7 11 -1 30 -7 15 -9 27 -4 27 5 0 12 -6 15 -12
4 -7 4 2 1 20 -2 18 -16 56 -29 85 -14 28 -24 53 -22 54 1 2 16 -8 32 -22 16
-14 32 -25 36 -25 4 0 14 -15 22 -33 7 -18 25 -41 40 -50 14 -10 26 -24 26
-33 0 -8 9 -32 20 -54 11 -22 20 -51 20 -65 0 -14 5 -25 11 -25 8 0 10 20 5
69 -13 127 -39 228 -87 331 -18 39 -28 74 -24 81 5 7 4 10 -3 6 -5 -4 -22 13
-36 37 -30 51 -33 64 -11 46 8 -7 15 -18 15 -26 0 -7 4 -16 10 -19 13 -8 1 26
-18 47 -8 10 -18 15 -22 13 -8 -5 -70 66 -70 80 0 4 8 1 18 -6 14 -11 14 -10
-2 8 -10 13 -21 21 -25 19 -3 -2 -53 34 -111 80 -107 86 -337 214 -385 214
-12 0 -42 7 -65 15 -23 8 -50 15 -59 15 -29 -1 20 -30 50 -30 14 0 33 -8 40
-17 15 -18 18 -18 -59 6 -28 8 -32 8 -22 -3 6 -8 32 -21 58 -29 74 -25 125
-48 118 -54 -3 -3 -27 3 -53 14 -62 26 -113 36 -113 22 0 -16 66 -79 82 -79 8
0 18 -15 23 -32 7 -22 20 -38 42 -48 25 -12 33 -21 33 -43 0 -20 -4 -26 -12
-20 -7 4 -2 -7 12 -24 14 -17 27 -29 29 -27 2 2 -4 13 -14 24 -20 22 -9 27 15
7 9 -7 15 -26 15 -44 0 -17 2 -30 4 -28 2 3 18 -3 35 -12 l31 -16 -22 25 c-21
22 -30 48 -18 48 10 0 65 -44 65 -52 0 -13 -43 -58 -51 -52 -4 2 -11 -1 -15
-7 -4 -8 -3 -9 4 -5 19 11 14 -9 -6 -27 -11 -10 -26 -14 -40 -10 -26 6 -27 16
-7 47 12 17 13 30 6 49 -5 14 -7 28 -3 32 4 5 -5 0 -20 -10 -18 -11 -28 -13
-28 -6 0 6 7 14 15 17 30 12 14 22 -27 17 -32 -3 -39 -2 -28 6 8 6 23 11 33
11 11 0 15 5 11 11 -4 7 -23 9 -53 4 -25 -3 -56 -8 -68 -9 -13 -1 -26 -6 -30
-11 -5 -4 -2 -5 5 -1 17 10 15 5 -12 -45 -13 -24 -30 -63 -36 -85 -11 -37 -18
-44 -68 -65 -80 -34 -79 -34 -57 -12 11 11 22 19 25 17 3 -1 12 1 20 7 13 7
13 9 1 9 -11 0 -10 5 5 23 10 12 -3 2 -28 -22 -26 -24 -46 -47 -45 -50 2 -7
-111 -121 -120 -121 -4 0 4 11 17 25 13 14 21 25 19 25 -3 0 -18 -14 -35 -32
-16 -17 -23 -28 -16 -24 18 11 15 0 -14 -44 -22 -33 -29 -37 -44 -28 -10 6
-16 17 -14 23 3 7 -1 17 -9 23 -8 7 -12 23 -9 37 5 28 -15 34 -37 13 -10 -11
-10 -8 0 15 10 22 19 27 46 27 35 0 151 35 168 51 13 13 28 11 19 -3 -4 -7 -3
-8 5 -4 6 4 9 11 7 15 -6 9 112 129 118 121 3 -3 8 -1 13 4 5 5 3 6 -4 2 -18
-10 -17 -7 16 65 31 67 38 96 48 194 8 87 -10 141 -66 196 -72 72 -171 94
-301 65z m206 -57 c100 -48 130 -130 98 -270 -46 -205 -170 -322 -344 -323
-61 0 -86 5 -135 27 -97 45 -129 84 -140 173 -7 50 13 152 40 204 42 81 156
166 264 196 74 20 168 17 217 -7z m-5993 -59 c-28 -12 -43 -40 -43 -84 0 -48
16 -54 24 -8 7 47 25 64 92 87 71 25 117 15 170 -38 35 -35 44 -54 58 -114 9
-40 16 -107 16 -150 0 -175 -97 -268 -280 -268 -75 0 -92 4 -145 30 -123 62
-220 190 -232 308 -11 107 75 195 225 231 66 17 152 21 115 6z m-309 -51 c-27
-29 -71 -60 -92 -63 -27 -4 -57 -76 -32 -76 5 0 14 9 20 20 24 44 40 13 18
-34 -13 -29 -31 -37 -89 -38 -33 0 -42 -5 -49 -24 -7 -18 -17 -24 -39 -24 -16
0 -32 -4 -36 -10 -3 -5 -12 -7 -20 -3 -8 3 -15 0 -15 -7 0 -6 5 -8 10 -5 6 3
10 2 10 -4 0 -15 -42 -41 -67 -41 -17 0 -27 -10 -37 -35 -8 -19 -20 -35 -25
-35 -6 0 -1 16 10 35 26 44 18 46 -9 3 -24 -37 -20 -50 13 -42 28 7 40 -9 25
-36 -10 -19 -12 -19 -41 -4 -30 15 -31 15 -28 -8 3 -33 -18 -78 -36 -78 -11 0
-15 -11 -15 -45 0 -39 -3 -47 -25 -55 -28 -11 -31 -29 -11 -68 16 -31 11 -75
-10 -93 -8 -6 -14 -30 -14 -53 0 -30 -5 -44 -20 -54 -12 -7 -20 -24 -21 -40 0
-15 -4 -36 -9 -47 -19 -45 -8 161 14 261 23 106 80 238 144 334 61 89 157 200
175 200 6 0 -5 -17 -24 -37 l-34 -38 42 39 c23 22 40 43 38 47 -3 4 12 21 34
38 41 33 62 41 42 17 -9 -11 -9 -16 0 -22 7 -4 9 -3 5 4 -3 6 -2 13 4 17 6 4
8 10 5 15 -6 10 65 54 140 87 63 28 73 28 49 2z m956 -134 c72 -37 92 -104 27
-91 -29 5 -27 3 17 -22 61 -34 98 -78 76 -92 -8 -5 -40 -10 -70 -10 l-55 -1
40 -20 c65 -32 80 -70 33 -82 -16 -5 -19 -11 -14 -29 11 -34 7 -257 -5 -301
-6 -21 -16 -40 -23 -43 -20 -8 -330 149 -378 191 -42 37 -42 37 -13 31 17 -4
104 -40 195 -80 160 -72 165 -73 173 -52 8 21 4 114 -9 189 -5 28 -3 37 7 37
8 0 1 11 -16 24 -25 20 -28 26 -16 40 7 9 24 16 37 16 13 0 24 4 24 9 0 13
-27 21 -75 21 -43 0 -77 22 -59 39 24 23 92 51 123 51 34 0 34 1 18 18 -14 13
-35 17 -98 17 -75 -1 -80 0 -77 19 4 27 78 68 124 69 44 1 39 16 -14 42 -22
11 -41 24 -42 28 0 9 33 1 70 -18z m4478 -342 c-10 -2 -18 -12 -18 -22 0 -22
-19 -41 -41 -41 -10 0 -21 -9 -24 -21 -4 -11 -17 -25 -29 -30 -37 -17 -63 -93
-70 -204 -11 -172 -13 -178 -61 -186 -5 -1 -25 -6 -42 -10 -32 -7 -33 -6 -26
20 5 23 42 126 72 204 6 16 16 25 21 22 8 -5 7 -12 -2 -23 -12 -15 -11 -16 5
-3 13 10 14 17 7 26 -8 10 -5 24 9 52 11 21 28 54 36 73 9 20 26 40 38 45 12
6 23 20 25 33 2 12 8 20 13 17 14 -9 47 13 54 35 4 13 14 20 28 19 17 -1 18
-2 5 -6z m947 -74 c-34 -86 -94 -194 -181 -325 -74 -113 -94 -133 -94 -94 0
11 6 20 14 20 25 0 29 21 9 35 -18 12 -19 21 -12 62 12 76 29 113 50 113 11 0
19 7 19 16 0 8 -4 12 -10 9 -5 -3 -10 -1 -10 5 0 6 6 13 14 16 8 3 17 17 20
30 8 29 83 115 100 113 32 -4 46 3 46 21 0 10 8 24 18 29 37 22 41 11 17 -50z
m-429 -140 c3 -6 14 -9 24 -6 9 2 22 -4 29 -14 6 -11 20 -19 30 -19 34 0 46
-26 33 -78 -6 -26 -13 -58 -16 -72 -12 -55 -145 -160 -204 -160 -27 0 -97 62
-119 104 -13 25 -6 20 34 -22 49 -52 51 -53 101 -50 28 2 49 5 46 7 -2 2 1 10
7 17 7 8 8 29 4 55 -10 56 -10 144 -1 202 7 46 18 58 32 36z m-264 -81 c21 -6
37 -16 35 -22 -5 -13 -61 -14 -97 -2 -25 9 -25 9 3 -18 28 -26 33 -56 10 -63
-6 -2 -19 8 -28 24 -10 18 -14 21 -11 8 3 -11 8 -32 11 -46 4 -16 1 -30 -8
-38 -13 -10 -17 -6 -27 23 -16 49 -29 54 -17 6 8 -29 8 -42 -2 -54 -18 -21
-31 -20 -31 2 0 29 -21 44 -39 28 -14 -11 -224 -106 -236 -106 -3 0 -5 12 -5
26 0 21 8 29 48 45 110 47 172 83 237 139 73 64 89 69 157 48z m-4962 -97 c0
-31 19 -35 30 -6 14 37 36 26 32 -16 l-3 -34 24 29 c27 33 55 29 35 -4 -18
-29 -1 -36 21 -9 11 13 23 21 27 16 4 -4 2 -13 -4 -19 -18 -18 -14 -30 7 -23
19 6 19 4 -2 -45 -22 -52 -42 -68 -31 -25 8 31 -9 33 -24 3 -10 -21 -11 -21
-12 12 l0 35 -20 -25 -20 -25 0 28 c0 15 -4 27 -10 27 -5 0 -10 -4 -10 -10 0
-5 -4 -10 -10 -10 -5 0 -10 7 -10 15 0 16 -16 21 -22 6 -1 -5 -28 -11 -58 -12
l-55 -4 -3 58 -3 57 61 0 c53 0 60 -2 60 -19z m5595 -300 c26 -48 74 -119 106
-156 32 -38 59 -72 59 -76 0 -12 -48 5 -119 41 -68 34 -164 121 -173 157 -6
22 53 123 72 123 5 0 30 -40 55 -89z"/>
<path d="M6760 1899 c-82 -37 -120 -88 -120 -162 0 -166 222 -72 246 105 11
77 -36 98 -126 57z"/>
<path d="M6971 1835 c-55 -40 -85 -90 -85 -142 -1 -62 20 -76 72 -48 45 24 82
92 82 150 0 37 -13 65 -30 65 -3 0 -21 -11 -39 -25z"/>
<path d="M1191 1908 c-1 -40 -8 -83 -20 -110 -38 -89 -181 -188 -272 -188 -37
0 -40 -2 -34 -22 9 -29 24 -44 54 -53 20 -6 23 -4 18 9 -5 12 11 25 71 55 170
86 240 206 197 336 l-13 40 -1 -67z"/>
<path d="M7020 2141 c0 -4 12 -14 28 -22 25 -15 53 -23 126 -36 129 -22 394
-161 495 -260 23 -22 48 -32 37 -14 -3 5 -35 33 -71 61 -35 29 -62 56 -60 60
3 4 -3 14 -13 21 -15 13 -16 12 -3 -3 8 -11 9 -18 3 -18 -6 0 -13 4 -16 9 -11
17 -164 100 -223 122 -107 38 -115 42 -103 49 8 5 7 9 -4 13 -9 4 -15 1 -13
-6 1 -7 -5 -10 -13 -8 -8 2 -40 10 -70 18 -66 18 -100 23 -100 14z"/>
<path d="M3405 1910 c-27 -5 -88 -14 -135 -20 -172 -24 -360 -64 -590 -127
-69 -18 -147 -42 -175 -52 -79 -29 -126 -43 -130 -39 -5 5 -8 48 -7 87 2 30 4
32 20 20 15 -12 16 -12 4 2 -8 11 -25 15 -52 14 -27 -2 -37 1 -33 9 4 6 -3 2
-15 -8 -23 -20 -30 -32 -12 -21 6 4 10 -7 10 -26 0 -28 -2 -30 -17 -18 -15 11
-14 10 1 -9 20 -23 32 -30 21 -12 -3 6 -2 10 2 10 16 0 33 -24 33 -45 0 -12 6
-30 14 -40 13 -18 18 -18 150 27 75 25 139 42 142 37 3 -5 11 -9 17 -9 8 0 7
3 -2 9 -17 11 -26 8 189 60 184 44 214 50 262 56 18 3 46 7 61 11 16 3 38 7
50 8 12 2 54 8 92 14 39 6 91 14 118 17 37 5 47 10 47 25 0 10 6 21 13 23 18
8 -20 6 -78 -3z"/>
<path d="M3465 1861 l-20 -8 20 -5 c11 -3 -11 -8 -50 -12 -38 -4 -106 -12
-150 -18 -44 -6 -90 -12 -102 -13 -12 -2 -63 -13 -113 -25 -50 -11 -101 -18
-113 -16 -12 3 -16 3 -8 0 8 -4 -36 -19 -98 -35 -204 -50 -421 -122 -547 -180
-96 -43 -98 -44 -88 -26 5 8 2 8 -9 -2 -18 -15 -23 -26 -7 -16 6 3 10 -2 10
-13 0 -10 3 -21 6 -24 3 -3 42 11 87 32 107 49 400 148 491 166 10 2 42 10 70
18 43 12 200 45 411 85 28 6 86 14 130 20 68 8 82 7 97 -6 17 -15 18 -15 18 1
0 10 -5 14 -12 10 -8 -5 -9 4 -4 34 3 23 5 42 4 41 -2 0 -12 -4 -23 -8z"/>
<path d="M4803 1854 c-9 -23 5 -30 97 -44 132 -20 461 -104 609 -155 127 -44
136 -46 148 -29 7 10 13 28 13 41 0 13 9 31 20 40 23 20 26 56 8 70 -7 6 -25
12 -39 15 -26 5 -26 4 -26 -58 1 -35 -1 -66 -4 -69 -3 -3 -75 17 -160 44 -250
80 -271 86 -499 131 -159 31 -160 31 -167 14z"/>
<path d="M4510 1777 c0 -41 3 -77 8 -81 4 -4 7 -26 7 -49 l0 -41 50 -8 c289
-44 475 -83 625 -130 281 -88 322 -100 330 -92 9 9 16 39 27 106 5 32 2 38
-23 51 -30 15 -279 97 -369 122 -81 22 -405 86 -463 91 -19 2 -59 8 -90 14
-78 14 -80 14 -85 -22 -2 -18 -4 -3 -3 34 0 37 4 64 8 62 5 -3 6 -14 3 -25 -7
-22 -5 -22 145 -39 83 -9 314 -51 464 -85 72 -16 193 -51 270 -77 135 -46 331
-131 331 -145 0 -6 4 -15 9 -20 5 -5 6 -3 2 5 -6 10 -1 11 17 7 38 -10 42 20
7 45 -63 45 -342 157 -475 191 -16 4 -65 17 -107 28 -42 11 -93 24 -114 27
-20 3 -48 10 -61 15 -13 5 -27 8 -31 7 -5 -1 -50 7 -92 17 -36 9 -136 22 -254
35 -55 5 -104 14 -110 20 -21 21 -26 8 -26 -63z"/>
<path d="M3925 1751 c6 -11 4 -13 -8 -8 -8 3 -17 0 -19 -6 -5 -18 -4 -161 6
-522 5 -181 6 -328 3 -325 -3 3 -7 29 -8 57 -1 29 -5 50 -9 48 -8 -5 3 -106
13 -105 4 0 51 0 105 0 l97 0 0 339 c0 339 0 339 -23 363 -12 14 -20 27 -17
29 2 3 -12 21 -32 40 -21 19 -31 26 -24 17 7 -10 9 -18 4 -18 -13 0 -65 55
-58 62 3 2 -5 13 -17 24 -12 10 -18 13 -13 5z"/>
<path d="M4269 1508 c0 -51 -2 -111 -3 -133 -2 -22 -7 -142 -11 -266 l-8 -226
24 -6 c13 -4 56 -7 95 -7 l71 0 6 63 c4 34 9 103 12 152 8 129 14 155 31 155
11 0 13 -9 10 -37 -3 -21 -8 -78 -11 -128 -3 -49 -8 -118 -11 -152 l-6 -63 49
0 c26 0 65 -4 86 -9 61 -14 65 -5 82 184 3 28 7 68 10 90 8 62 14 120 25 245
6 63 13 127 16 141 6 31 -11 48 -57 54 -72 11 -326 35 -366 35 l-43 0 -1 -92z"/>
<path d="M3505 1568 c-103 -15 -165 -29 -165 -36 0 -10 27 -239 39 -337 6 -44
16 -135 22 -202 7 -67 15 -126 19 -132 4 -8 35 -8 106 -2 54 6 129 13 167 16
l67 7 0 63 c0 35 -4 75 -9 88 -9 23 -12 24 -85 19 -42 -2 -76 -3 -76 -1 0 2
-3 37 -7 78 -7 88 -4 91 91 91 l69 0 -7 31 c-3 17 -6 58 -6 90 l0 58 -90 -6
c-62 -4 -90 -3 -90 5 0 19 123 33 170 19 14 -4 20 -4 14 -2 -6 3 -9 17 -6 30
2 14 1 50 -3 80 l-6 55 -77 -1 c-42 -1 -104 -6 -137 -11z"/>
<path d="M4776 1528 c-2 -7 -7 -40 -11 -73 -20 -185 -25 -229 -34 -322 -6 -56
-13 -114 -15 -130 -2 -15 -7 -54 -11 -86 -5 -38 -11 -54 -16 -45 -6 9 -9 10
-9 1 0 -23 46 -43 130 -58 45 -8 86 -13 90 -10 4 2 10 35 14 72 9 76 10 85 19
128 3 17 9 62 12 100 3 39 10 84 15 100 5 17 8 37 7 45 -1 8 2 37 6 64 l9 49
18 -28 c16 -24 16 -33 5 -84 -7 -31 -13 -63 -13 -71 0 -12 -16 -120 -37 -250
-16 -94 -17 -147 -4 -147 34 -1 183 -43 190 -54 4 -7 14 -9 24 -6 35 14 375
-119 361 -142 -3 -5 2 -15 12 -22 15 -13 16 -12 3 4 -15 19 -2 24 17 5 6 -6
15 -9 18 -5 8 8 33 95 45 157 4 25 10 54 13 65 3 11 16 67 30 125 13 58 38
155 54 215 59 222 75 312 55 308 -15 -3 -127 46 -120 53 3 3 19 -2 36 -10 16
-9 34 -16 38 -16 4 1 -8 9 -27 19 -21 11 -46 17 -62 14 -23 -4 -29 -14 -49
-88 l-23 -82 -58 19 c-32 11 -56 23 -54 27 3 4 -8 6 -22 5 -33 -1 -57 7 -44
15 6 3 -9 6 -32 7 l-43 1 -18 -71 c-16 -66 -29 -126 -41 -186 -3 -14 -12 -59
-21 -100 -16 -78 -19 -95 -28 -145 -3 -16 -10 -48 -15 -70 -5 -22 -11 -52 -15
-67 -3 -16 -10 -28 -16 -28 -6 0 -7 5 -3 12 4 7 3 8 -5 4 -8 -5 -10 -1 -7 16
19 93 27 133 40 208 9 47 18 101 21 120 3 19 8 42 10 50 3 8 7 35 10 60 3 24
8 46 10 48 2 3 -5 22 -16 44 -11 22 -18 42 -15 45 3 3 12 -12 21 -32 8 -21 18
-36 21 -33 8 9 -31 73 -45 73 -6 0 -27 28 -47 63 -19 35 -29 60 -22 56 20 -13
42 -14 31 -3 -5 5 -25 11 -44 14 -19 2 -56 9 -84 15 -56 12 -75 15 -160 30
-33 6 -68 13 -78 16 -9 3 -19 -1 -21 -8z"/>
<path d="M3193 1518 c-16 -5 -41 -10 -58 -12 -49 -7 -136 -25 -145 -31 -5 -3
-25 -6 -45 -7 -20 -1 -32 -4 -28 -7 4 -3 8 -10 8 -16 1 -5 5 -31 9 -56 4 -25
9 -59 11 -75 1 -16 7 -60 13 -99 6 -38 23 -146 37 -240 25 -164 39 -205 69
-205 6 0 5 4 -3 9 -9 6 0 11 30 15 24 4 64 11 89 16 25 5 79 15 120 22 69 12
75 15 76 38 2 24 -14 129 -21 141 -2 3 -42 0 -89 -6 -84 -11 -86 -11 -87 9 0
12 -3 47 -5 78 -4 53 -3 58 18 62 13 3 52 11 87 18 l64 13 -6 71 c-8 91 -14
105 -41 100 -122 -24 -147 -28 -153 -22 -11 11 2 16 88 34 l84 18 -1 34 c0 19
-4 52 -8 73 -7 36 -8 37 -46 35 -22 -2 -52 -6 -67 -10z"/>
<path d="M2855 1448 c-18 -8 -18 -8 3 -4 30 6 27 -4 -14 -38 -37 -31 -44 -30
-47 2 0 11 -5 18 -9 16 -4 -3 -45 -18 -90 -35 -45 -16 -86 -33 -89 -37 -8 -8
8 -117 27 -174 3 -11 7 -30 8 -41 2 -12 6 -35 10 -52 3 -16 8 -39 10 -50 21
-109 59 -303 62 -314 3 -9 12 -11 32 -5 15 4 42 8 60 8 18 0 27 3 21 7 -8 4 4
12 29 18 23 7 44 16 47 21 3 5 1 36 -5 67 -13 63 -13 64 -25 138 -4 28 -12 61
-17 74 -8 21 -16 76 -21 141 -1 14 3 24 9 23 7 -1 20 8 30 20 l19 22 -22 -19
c-35 -29 -27 -4 9 30 17 16 27 23 23 15 -5 -9 -4 -12 3 -7 7 4 12 0 12 -10 0
-10 3 -14 6 -11 4 3 -1 22 -9 40 -11 22 -15 53 -13 86 1 30 -1 46 -5 39 -6 -9
-9 -7 -9 8 0 26 -18 35 -45 22z"/>
<path d="M1194 618 c-84 -113 -273 -198 -439 -198 -75 0 -71 -24 4 -28 70 -4
206 30 295 75 104 52 247 203 192 203 -7 0 -31 -24 -52 -52z"/>
<path d="M1219 580 c-77 -89 -205 -162 -334 -190 -27 -7 -89 -10 -137 -8 -88
3 -114 -3 -81 -20 38 -20 109 -22 192 -7 114 22 203 57 281 110 62 43 150 133
150 154 0 28 -24 15 -71 -39z"/>
<path d="M1244 536 c-33 -35 -85 -80 -115 -100 -118 -80 -362 -130 -451 -93
l-37 15 -53 -56 c-29 -31 -56 -56 -60 -55 -4 2 -17 -12 -28 -30 l-22 -32 26
30 c31 36 35 25 6 -15 l-21 -29 30 -22 c17 -12 28 -26 25 -30 -2 -4 1 -11 7
-15 8 -4 9 -3 5 4 -10 16 -5 15 46 -7 92 -39 266 -89 323 -92 230 -11 358 7
508 75 59 27 95 35 67 15 -13 -9 -13 -10 0 -6 8 2 14 9 13 15 -1 5 29 29 67
52 72 43 81 59 55 94 -8 10 -12 23 -9 28 3 5 2 7 -3 6 -12 -4 -97 57 -125 90
-14 17 -33 33 -44 36 -19 7 -64 64 -95 121 -10 16 -25 38 -35 47 -18 15 -22
13 -80 -46z m62 -126 c15 0 42 -16 67 -39 42 -39 42 -40 42 -110 0 -68 -1 -71
-40 -111 -34 -35 -101 -68 -113 -55 -2 2 10 23 27 47 35 48 41 100 15 149 -21
41 -93 73 -142 64 -32 -6 -34 -5 -22 10 25 30 98 58 128 49 8 -2 25 -4 38 -4z"/>
</g>
</svg>
